PathFileType	4	(X/Y/Z)	62_2_32_p1_0-588_filt_butterworth.trc
DataRate	CameraRate	NumFrames	NumMarkers	Units	OrigDataRate	OrigDataStartFrame	OrigNumFrames
60.0	60.0	7	27	m	60.0	367	588
Frame#	Time	RHip			RKnee			RAnkle			RBigToe			RSmallToe			RHeel			LHip			LKnee			LAnkle			LBigToe			LSmallToe			LHeel			Neck			Head			Nose			RShoulder			RElbow			RWrist			RThumb			RIndex			RPinky			LShoulder			LElbow			LWrist			LThumb			LIndex			LPinky			
		X1	Y1	Z1	X2	Y2	Z2	X3	Y3	Z3	X4	Y4	Z4	X5	Y5	Z5	X6	Y6	Z6	X7	Y7	Z7	X8	Y8	Z8	X9	Y9	Z9	X10	Y10	Z10	X11	Y11	Z11	X12	Y12	Z12	X13	Y13	Z13	X14	Y14	Z14	X15	Y15	Z15	X16	Y16	Z16	X17	Y17	Z17	X18	Y18	Z18	X19	Y19	Z19	X20	Y20	Z20	X21	Y21	Z21	X22	Y22	Z22	X23	Y23	Z23	X24	Y24	Z24	X25	Y25	Z25	X26	Y26	Z26	X27	Y27	Z27	
367	6.116666666666666	0.3154548067068445	0.30950021640067216	0.6447083784635228	0.301229820391538	-0.058777673376527284	0.7970610656937226	0.30825685515226653	-0.4493107067958028	0.9259403688602503	0.2875514558726971	-0.5315039973073987	0.7872902435141	0.3579770671619712	-0.5143108200828952	0.795800407044664	0.29773365287603637	-0.5006949788103386	0.9610947714163277	0.11417635941024387	0.3273396700890491	0.7222835702759258	0.13943606397135588	-0.047980538011349216	0.8428634162085535	0.15829340916524687	-0.4419736023456769	0.942077567943605	0.11891502470601954	-0.49238815122074603	0.7478401403142577	0.08299090982206574	-0.4834439789075202	0.8153501868618429	0.19140844360402165	-0.5020878827634327	1.0003263373158116	0.21732800509440253	0.8845182459514926	0.6024156393325609	0.20549536801429197	1.1305035259047327	0.48435581821876683	0.19663271811010663	0.9781086987972746	0.4488194579205982	0.3708931234738418	0.7908867587457429	0.5546373715314171	0.4368837120202711	0.5068558302628745	0.6207251307829309	0.4262614534282796	0.26632923472005177	0.6111597020723021	0.4005973005799366	0.15120543939410802	0.6127807249109647	0.41701314164721104	0.13519838590756686	0.609522517063302	0.4312340307954713	0.1442208794969608	0.6601529904340562	0.05570187844263415	0.8142573772885678	0.6710847998444953	0.007087166791708538	0.5520151981315349	0.7382084965010018	-0.022004671321074087	0.2968883315003074	0.7173744534527751	0.0001586418117236005	0.21116754122920828	0.6886117896819937	-0.020564482750132097	0.1845168343304015	0.693579838213892	-0.045076258659539785	0.18933316210369078	0.7560045608080452	
368	6.133333333333334	0.31555973744605587	0.30921874219429146	0.6447627982224851	0.3011245591919646	-0.05836087373426163	0.7968017964676607	0.3086850898906856	-0.4491088869788784	0.9257697940222932	0.28667155219537077	-0.5313204225551801	0.7863029597726103	0.35620063237151367	-0.5131054625780258	0.7936541084479789	0.29774041917636895	-0.500996063879053	0.9609868732280061	0.11448331480870157	0.327132828990528	0.7226643532546089	0.1393220064218114	-0.04831012681811192	0.8441212643093263	0.15804424323462704	-0.44232100044796313	0.9428581371194334	0.1179526525698226	-0.49241373479425016	0.747928668885728	0.08295663280811758	-0.4835207092235898	0.8158151567677031	0.19144863929547004	-0.5023249857430006	1.0002161783828278	0.21734358902687284	0.8844187546393608	0.6024462676507244	0.2058542791583311	1.1310012623743317	0.48593314370330953	0.1966540893971731	0.9788385036668352	0.44854281714284705	0.3708884062143783	0.7909064019208129	0.5546319625568229	0.4354257683113728	0.5072889167206411	0.6188244370826026	0.42238691891289926	0.26754721187717917	0.6074364176464233	0.40062785987700755	0.1534520706885222	0.6136340083027602	0.4159607211057731	0.13724113815665304	0.6102921087890748	0.42744555556936925	0.14527939149709043	0.6601610363291608	0.056238604474554546	0.8132106160712005	0.6682699112286914	0.007502727493775009	0.5523293661062035	0.7356813875705184	-0.021972287962716528	0.29545072789129057	0.7202158004157574	-0.0017331257706615926	0.20981933062693978	0.6854921655536241	-0.021564694066062217	0.18295403287194145	0.6981351310805772	-0.04627878109484909	0.18802631214781323	0.7587378523352294	
369	6.15	0.31553306925436303	0.3090874699292431	0.6447096505320697	0.30086746667717934	-0.057940982882335845	0.7963321421106222	0.3091170645667672	-0.4490469297469616	0.9255414886972685	0.28652419970138376	-0.5318525890725088	0.7867026779081859	0.35526827157774743	-0.5124138046539732	0.7929453814917438	0.2977989820789711	-0.5014632396229312	0.9609384859952489	0.1146481796894037	0.32696397773075553	0.7225227077566683	0.13914820846944728	-0.04875147113540734	0.8456426700115107	0.15793752028261515	-0.44295982854700267	0.9440931702149611	0.11751238251545838	-0.493159506824699	0.7493059678784787	0.08289045176032521	-0.4840636399162083	0.8172065082865915	0.1916422035340704	-0.5027360495474408	1.0002071588929147	0.2173604384369178	0.8843105876984967	0.6024868134669816	0.20589983319922053	1.13116609790726	0.48683031378821606	0.1966538600082819	0.9800015785407804	0.448465250813884	0.3708572074509926	0.7912127956917409	0.5545404725740445	0.4335744662087986	0.5081720641023671	0.6163916691195794	0.41865747102138895	0.2687785112017741	0.604701423495051	0.39989041635020306	0.15630176919099922	0.6143222623613033	0.41460280248265535	0.1390918125977177	0.6109332934769826	0.4230921329356325	0.14639768413664253	0.6593863807411744	0.056696536157173835	0.8126159377898858	0.6657211149354626	0.008012359196144916	0.5524836429779574	0.7323518269226279	-0.021688441720251216	0.29449152617040464	0.7207975741142401	-0.0035309902612401566	0.20813101200818104	0.6826806999035204	-0.022392338775856318	0.18154407684162777	0.7022436334849462	-0.04748449561119468	0.1869149839113139	0.7599800639741603	
370	6.166666666666667	0.3153426665239055	0.30915720082661846	0.6444983537502191	0.30054046574183196	-0.05762236631740553	0.7958103140176912	0.3095477131218568	-0.4492966271006758	0.9253984675508977	0.2870969754596105	-0.5328853862033072	0.7882647622765476	0.3555350827782283	-0.512471165912285	0.7939732648743949	0.29789371323145863	-0.50209867920867	0.9609557148979585	0.11467036123233997	0.326843399596935	0.7217632002173024	0.13892668958126997	-0.04924893671092595	0.8473280593856596	0.15794500819288176	-0.4438250206764085	0.9457831848789837	0.11756070896666768	-0.49470408821552364	0.7522484119676128	0.08274761726420601	-0.48517413663702164	0.8196896255551614	0.19192713618111054	-0.5032756447983681	1.0003387221580844	0.2173579157552713	0.8843755446094173	0.6025242270709363	0.205783312160341	1.131055657941734	0.48691856722202914	0.19659795436006966	0.9814601056225569	0.44894734297963	0.3708022657760376	0.7917709728943233	0.5543793488123677	0.43156211745188455	0.5094346728478082	0.6137673613125055	0.41560041099273415	0.269777735372169	0.6034212587082461	0.3981530012043858	0.15931591134840808	0.6146180909434249	0.41306065443257933	0.14041030982908845	0.6113957977620281	0.41892825907887216	0.1474575867426653	0.6582444147488693	0.057029801627975024	0.8124039835851189	0.6638008383115519	0.008678504502640112	0.5522679250148094	0.7282173956321203	-0.02119143761363662	0.2940043558089276	0.7194086772830962	-0.005000361148421364	0.2064642257029727	0.6805219577005085	-0.02326624314991916	0.18061504042981513	0.7053680329601708	-0.048749161534136096	0.18613662168110928	0.7594429000407145	
371	6.183333333333334	0.3150324245847537	0.3093536328822217	0.6441708026925848	0.30024945978342277	-0.05751447316480052	0.7953983875976948	0.309959405931336	-0.4499815175817864	0.9255860937128044	0.2881037765881595	-0.5340354813163074	0.7903978923561654	0.35675873197758823	-0.5131837939052022	0.7963146780042709	0.29799819009179557	-0.5028553353923322	0.9610078137705584	0.11454299457028257	0.3267468565146813	0.7204176727538745	0.13868962386983893	-0.04969618444820362	0.8489534636591213	0.1580187597464421	-0.4447864344725656	0.9477899287813518	0.11785463070866603	-0.49680758359660987	0.756457160832103	0.08249961297331153	-0.4867210398594969	0.8230759251109231	0.19222640264353283	-0.5039086854158744	1.0006252003688056	0.21730633311493877	0.8848093998014057	0.6025446277571984	0.20567822927423224	1.130838696709502	0.4866186303844395	0.19646480830241964	0.9829493447276281	0.4501618716393958	0.37073107641382586	0.7924868937015936	0.5541803595035618	0.42968914525803303	0.5108533477895987	0.6112461945954071	0.41354800943653336	0.2703257431746161	0.6036886947809745	0.3955158358855996	0.16191760326613516	0.6149701892425092	0.41138281419222755	0.14101130402611992	0.6119021477102343	0.415466438386993	0.14827957311150106	0.6575369498054437	0.05722683953836692	0.8124356687680305	0.6627223487762328	0.009507386797273424	0.5515099868472453	0.7235206952097428	-0.020519540339607588	0.2938913748147109	0.7164897995118328	-0.006018683488770988	0.2051597613564641	0.6790688649951098	-0.024316218138134886	0.18027771355195743	0.7069028421662642	-0.04998133650144625	0.18555885337067551	0.75743528468067	
372	6.2	0.31470564699534254	0.3095500144993028	0.6438471907384541	0.3000489672538807	-0.05761927325943483	0.795136701211294	0.3103203137478208	-0.45099041500008363	0.9262485522819217	0.28920927721619166	-0.5350388614657576	0.7926191474070688	0.3583315811150946	-0.5142430674256896	0.7991713470992328	0.2980813037471937	-0.5035760014789528	0.9610362021356559	0.11425435164955293	0.3266445464723886	0.71865196622981	0.13846892987169038	-0.049997988979404384	0.8503016211142658	0.15810584938577982	-0.44566179387387206	0.9498284356070992	0.1182460376640247	-0.4990676568983997	0.7611939209627043	0.0821599659091082	-0.4884555011652819	0.826912041204588	0.1924913388825443	-0.5045356305257471	1.0010029567244139	0.2172027941469158	0.885676481619735	0.6025413341259368	0.20562656528320405	1.130732130218558	0.4867025628605379	0.1962620078857492	0.9842252010988602	0.45201211370793676	0.370649940646247	0.7932584008622323	0.5539290254286792	0.428254933452036	0.5121148172606256	0.6090855997568129	0.41245619164050534	0.27030933675925384	0.6052765430771172	0.3922883008290795	0.16359973129367214	0.6164193255283843	0.4095433937480262	0.14096109528075113	0.6129162335261755	0.41266731570633325	0.14853078195210598	0.6583325314936226	0.057300851172011655	0.812555916565116	0.6624746977175053	0.010405151621024202	0.5501636112247749	0.7189956003293893	-0.019743073878749278	0.2940196091535554	0.7124798134416952	-0.006599129986749646	0.20441490475793037	0.6782467641439103	-0.02538060378658872	0.18043156785547748	0.7064749300605779	-0.05086977561947906	0.1849538384752586	0.7546698645446788	
373	6.216666666666667	0.3144532105312961	0.3096764236254552	0.6435978846725112	0.2999262720163119	-0.05781977471380906	0.794960198444724	0.3106038773190788	-0.45199498253355014	0.9272571918541411	0.29026624757058583	-0.5357912803680257	0.7947069774293173	0.35976850105015956	-0.5153786956543785	0.8019145562201458	0.2981198874452375	-0.5040964431467635	0.9610037150668207	0.11382280978751359	0.32653048327365536	0.7167218870284369	0.13827511852529142	-0.05013204355177786	0.8513067767700667	0.15816212997929918	-0.44630102426627166	0.9516364111046584	0.11878198820127177	-0.5010071861073527	0.7654494174889086	0.08179813955843582	-0.49000803305422674	0.830407387940794	0.19271344191635384	-0.5050331160523938	1.0013328170149052	0.21712869205332547	0.8868865998917284	0.6025224499377272	0.20554957397631063	1.1309037940709128	0.48764604432950875	0.19601592478282814	0.9851471221098961	0.4542341205742476	0.3705645096643095	0.7939840178791846	0.5535603756378339	0.4274498584394978	0.5128744791093627	0.6075092136371045	0.41202526768312103	0.26978637004630723	0.6076542390982349	0.38886365740212825	0.1641491417849871	0.6197919168029428	0.40759856892612745	0.14050243185619474	0.6147995825261215	0.4101790776398654	0.1479178378864691	0.6613737200916205	0.05729752205629424	0.8126541151993736	0.662728832868817	0.011255536676029652	0.5483736063645325	0.7153374310422731	-0.01894516369336705	0.2942963834730622	0.7078907001779033	-0.006843954542789658	0.2043093342952025	0.6778405530997891	-0.026118164924894972	0.18094415177170475	0.7041516792415524	-0.05094295686368598	0.18425091123506065	0.7519632924857735	
